<?xml version="1.0" encoding="utf-8"?>
<!-- Generator: Adobe Illustrator 22.0.1, SVG Export Plug-In . SVG Version: 6.00 Build 0)  -->
<svg version="1.1" id="Calque_1" xmlns="http://www.w3.org/2000/svg" xmlns:xlink="http://www.w3.org/1999/xlink" x="0px" y="0px"
	 viewBox="0 0 198.4 198.4" style="enable-background:new 0 0 198.4 198.4;" xml:space="preserve">
<style type="text/css">
	.st0{fill:#FFFFFF;}
	.st1{fill:url(#SVGID_1_);}
	.st2{fill:#04215B;}
	.st3{fill:url(#SVGID_2_);}
</style>
<title>Plan de travail 3</title>
<circle class="st0" cx="99.2" cy="99.2" r="87.2"/>
<linearGradient id="SVGID_1_" gradientUnits="userSpaceOnUse" x1="8.34" y1="100.83" x2="190" y2="100.83" gradientTransform="matrix(1 0 0 -1 0 200)">
	<stop  offset="0" style="stop-color:#F42C58"/>
	<stop  offset="4.000000e-02" style="stop-color:#E52D59"/>
	<stop  offset="0.13" style="stop-color:#BD2E5D"/>
	<stop  offset="0.24" style="stop-color:#7D3063"/>
	<stop  offset="0.38" style="stop-color:#25336A"/>
	<stop  offset="0.42" style="stop-color:#07346D"/>
	<stop  offset="0.6" style="stop-color:#147DB1"/>
	<stop  offset="0.73" style="stop-color:#1DABDC"/>
	<stop  offset="0.8" style="stop-color:#20BDED"/>
	<stop  offset="0.87" style="stop-color:#14C5C7"/>
	<stop  offset="1" style="stop-color:#00D484"/>
</linearGradient>
<path class="st1" d="M99.2,190C49,190,8.4,149.4,8.3,99.2C8.3,49,49,8.4,99.1,8.3C149.3,8.3,190,49,190,99.1c0,0,0,0.1,0,0.1
	C189.9,149.3,149.3,189.9,99.2,190z M99.2,16.4c-45.7,0-82.8,37-82.9,82.8c0,45.7,37,82.8,82.8,82.9c45.7,0,82.8-37,82.9-82.8
	c0,0,0,0,0,0C181.9,53.5,144.9,16.5,99.2,16.4L99.2,16.4z"/>
<path class="st2" d="M41.3,117.5c-10.2,0-18.5-8.3-18.5-18.5c0-10.2,8.3-18.5,18.5-18.5c10.2,0,18.5,8.3,18.5,18.5
	C59.8,109.2,51.5,117.5,41.3,117.5z M41.3,88.5c-5.8,0-10.5,4.7-10.5,10.5c0,5.8,4.7,10.5,10.5,10.5s10.5-4.7,10.5-10.5l0,0
	C51.8,93.2,47.1,88.5,41.3,88.5L41.3,88.5z"/>
<path class="st2" d="M84.7,117.5c-10.2,0-18.5-8.3-18.5-18.5c0-10.2,8.3-18.5,18.5-18.5c10.2,0,18.5,8.3,18.5,18.5
	C103.2,109.2,94.9,117.5,84.7,117.5z M84.7,88.5c-5.8,0-10.5,4.7-10.5,10.5c0,5.8,4.7,10.5,10.5,10.5c5.8,0,10.5-4.7,10.5-10.5
	C95.2,93.2,90.5,88.5,84.7,88.5L84.7,88.5z"/>
<path class="st2" d="M113.7,117.5c-6.5,0-17.5-2.8-18.6-21.8c-0.1-2.2,1.6-4.1,3.8-4.2s4.1,1.6,4.2,3.8c0.7,12.8,6.4,14.3,10.6,14.3
	c7.2,0,10.4-5.3,10.5-10.5c0-4.5-0.6-9.1-1.8-13.4c-0.6-2.1,0.6-4.3,2.7-5c2.1-0.6,4.3,0.6,5,2.7c0,0.1,0.1,0.2,0.1,0.3
	c1.4,5,2.1,10.2,2.1,15.5C132.1,108.2,125.7,117.5,113.7,117.5z"/>
<path class="st2" d="M70.3,117.5c-9.5,0-16.6-7.4-18.5-19.3l7.9-1.3c0.6,3.8,2.9,12.6,10.6,12.6c1.8,0,3.6-0.5,5.2-1.4l4,6.9
	C76.7,116.6,73.5,117.5,70.3,117.5z"/>
<path class="st2" d="M82.3,135.5c0-1.5,0.6-2.9,1.7-3.9c2.2-2.1,5.8-2.1,8,0c2.2,2.2,2.2,5.8,0,8c-1.1,1.1-2.5,1.6-4.1,1.6
	c-1.5,0-3-0.6-4-1.6C82.9,138.5,82.3,137,82.3,135.5z M84.8,135.5c0,0.9,0.3,1.8,0.8,2.5c1.3,1.2,3.3,1.2,4.6,0
	c1.1-1.4,1.1-3.5,0-4.9c-1.3-1.2-3.3-1.2-4.6,0C85.1,133.7,84.8,134.6,84.8,135.5L84.8,135.5z"/>
<path class="st2" d="M103.1,130.3v6.1c0,1.8,0.7,2.6,2.1,2.6s2.1-0.9,2.1-2.6v-6.1h2.4v6.1c0,0.7-0.1,1.5-0.3,2.2
	c-0.2,0.6-0.6,1.1-1.1,1.5c-1.9,1.4-4.4,1.4-6.3,0c-0.5-0.4-0.8-0.9-1-1.5c-0.2-0.7-0.3-1.4-0.3-2.2v-6.1H103.1z"/>
<path class="st2" d="M126.9,136.1h-7.6c0,0.8,0.3,1.5,0.8,2.1c0.5,0.5,1.2,0.8,1.9,0.8c0.5,0,1.1-0.1,1.5-0.4c0.5-0.5,1-1,1.3-1.6
	l2.1,1.1c-0.3,0.5-0.6,1-1,1.4c-0.3,0.4-0.7,0.7-1.1,1c-0.4,0.3-0.8,0.4-1.3,0.6c-0.5,0.1-1,0.2-1.5,0.2c-1.4,0.1-2.8-0.5-3.8-1.5
	c-1-1.1-1.5-2.6-1.4-4.1c-0.1-1.5,0.4-2.9,1.4-4.1c2.1-2,5.4-2,7.4,0c1,1.1,1.4,2.6,1.3,4.1L126.9,136.1z M124.4,134.1
	c-0.2-1.2-1.3-2.1-2.5-2c-0.3,0-0.6,0-0.8,0.1c-0.3,0.1-0.5,0.2-0.7,0.4c-0.2,0.2-0.4,0.4-0.6,0.6c-0.2,0.3-0.3,0.5-0.3,0.8
	L124.4,134.1z"/>
<path class="st2" d="M140.1,132.1l-2,1.1c-0.3-0.7-0.7-1-1.2-1c-0.2,0-0.4,0.1-0.6,0.2c-0.2,0.1-0.2,0.4-0.2,0.6
	c0,0.4,0.5,0.8,1.4,1.2c1,0.4,1.8,0.9,2.6,1.5c0.5,0.5,0.7,1.2,0.7,1.9c0,1-0.4,1.9-1.1,2.6c-1.7,1.5-4.3,1.3-5.7-0.4
	c-0.3-0.4-0.5-0.8-0.7-1.2l2.1-1c0.2,0.4,0.4,0.7,0.7,1c0.3,0.3,0.7,0.4,1.1,0.4c0.8,0,1.2-0.4,1.2-1.1c0-0.4-0.3-0.8-1-1.2
	l-0.7-0.4l-0.8-0.4c-0.6-0.2-1.1-0.6-1.5-1c-0.4-0.5-0.6-1.1-0.6-1.7c0-0.9,0.3-1.7,0.9-2.3c0.6-0.6,1.5-0.9,2.4-0.9
	C138.5,130,139.7,130.8,140.1,132.1z"/>
<path class="st2" d="M150,132.6v8.3h-2.4v-8.3h-1v-2.3h1v-3.9h2.4v3.9h1.9v2.3H150z"/>
<path class="st2" d="M99.2,103c-2.2,0-4-1.8-4-4c0-11.2-4.8-21.9-13.2-29.4l-0.2-0.2c-1-0.9-2.1-1.8-3.3-2.6c-1.8-1.2-2.3-3.7-1-5.6
	c1.2-1.8,3.7-2.3,5.6-1c0,0,0.1,0,0.1,0.1c1.4,1,2.7,2,3.9,3.1l0.2,0.2c10.1,9,15.9,21.9,15.9,35.4C103.2,101.2,101.4,103,99.2,103z
	"/>
<linearGradient id="SVGID_2_" gradientUnits="userSpaceOnUse" x1="124.16" y1="100.995" x2="190" y2="100.995" gradientTransform="matrix(1 0 0 -1 0 200)">
	<stop  offset="0.59" style="stop-color:#04215B"/>
	<stop  offset="0.6" style="stop-color:#042B5D"/>
	<stop  offset="0.78" style="stop-color:#01A479"/>
	<stop  offset="0.85" style="stop-color:#00D484"/>
</linearGradient>
<path class="st3" d="M171.6,117.5c-0.5,0-1.1,0-1.6-0.1c-11.3-1-15-12.3-16.6-17.1l-0.1-0.2c-2.2-7.7-5.8-11.6-10.6-11.6
	c-6,0-10.2,4.3-10.5,10.7l-8-0.4c0.5-10.6,8.3-18.3,18.5-18.3c8.6,0,15.1,6.1,18.3,17.3c2.6,8,5.4,11.2,9.7,11.6c0.3,0,0.6,0,0.9,0
	c5.8,0,10.4-4.7,10.4-10.4h8C190,109.2,181.8,117.4,171.6,117.5z"/>
</svg>
